<svg xmlns="http://www.w3.org/2000/svg" xmlns:xlink="http://www.w3.org/1999/xlink" width="64" height="64" id="car"><defs><path id="a" d="M.06 64H64V.04H.06z"></path></defs><g fill="none" fill-rule="evenodd"><mask id="b" fill="#fff"><use xlink:href="#a"></use></mask><path fill="#FFFFFE" d="M47 41c-1.654 0-3-1.346-3-3s1.346-3 3-3 3 1.346 3 3-1.346 3-3 3zM18.04 29l1.907-9.539C20.167 18.674 20.778 17 22 17h20c1.222 0 1.833 1.674 2.053 2.461L45.96 29H18.04zM17 41c-1.654 0-3-1.346-3-3s1.346-3 3-3 3 1.346 3 3-1.346 3-3 3zm32.983-11.656c.006-.115.017-.228.017-.344l-2.039-10.392-.03-.129C47.005 15.048 44.788 13 42 13H22c-2.788 0-5.005 2.048-5.931 5.479l-2.03 10.129L14 29c0 .116.011.229.017.344C11.682 30.165 10 32.387 10 35v5c0 2.606 1.673 4.824 4 5.65V48a2 2 0 0 0 2 2h2a2 2 0 0 0 2-2v-2h24v2a2 2 0 0 0 2 2h2a2 2 0 0 0 2-2v-2.35c2.327-.826 4-3.044 4-5.65v-5c0-2.613-1.682-4.835-4.017-5.656z" mask="url(#b)"></path><path fill="#4C5665" d="M54 40c0 2.606-1.673 4.824-4 5.65V48a2 2 0 0 1-2 2h-2a2 2 0 0 1-2-2v-2H20v2a2 2 0 0 1-2 2h-2a2 2 0 0 1-2-2v-2.35c-2.327-.826-4-3.044-4-5.65v-5c0-2.613 1.682-4.835 4.017-5.656-.006-.115-.017-.228-.017-.344l.039-.392 2.03-10.129C16.995 15.048 19.212 13 22 13h20c2.788 0 5.005 2.048 5.931 5.479l.03.129L50 29c0 .116-.011.229-.017.344C52.318 30.165 54 32.387 54 35v5zM32 0C14.327 0 0 14.327 0 32c0 17.673 14.327 32 32 32 17.673 0 32-14.327 32-32C64 14.327 49.673 0 32 0z" mask="url(#b)"></path><path fill="#4C5665" d="M44.053 19.461C43.833 18.674 43.222 17 42 17H22c-1.222 0-1.833 1.674-2.053 2.461L18.04 29h27.92l-1.907-9.539M17 35c-1.654 0-3 1.346-3 3s1.346 3 3 3 3-1.346 3-3-1.346-3-3-3M47 35c-1.654 0-3 1.346-3 3s1.346 3 3 3 3-1.346 3-3-1.346-3-3-3"></path></g></svg>