<?xml version="1.0" encoding="UTF-8"?><svg id="Layer_2" xmlns="http://www.w3.org/2000/svg" viewBox="0 0 455.84 289.92"><defs><style>.cls-1,.cls-2,.cls-3,.cls-4,.cls-5,.cls-6{fill:none;}.cls-1,.cls-3{opacity:.3;}.cls-2{opacity:.2;}.cls-2,.cls-3,.cls-4,.cls-5,.cls-6{isolation:isolate;}.cls-4{opacity:.6;}.cls-5{opacity:.4;}.cls-6{opacity:.5;}.cls-7{fill:#007cff;}.cls-8{fill:#fff;}.cls-9{fill:#ffa485;}.cls-10{fill:#e4e7e0;}.cls-11{fill:#9fbab5;}.cls-12{fill:#e06a4b;}.cls-13{fill:#141710;}.cls-14{fill:#1a2e35;}.cls-15{fill:#94e084;}.cls-16{fill:#85c675;}</style></defs><g id="Layer_1-2"><path class="cls-13" d="m13.14,0h73.23c7.25,0,13.14,5.89,13.14,13.14v162.16c0,9.4-7.63,17.03-17.03,17.03H17.03c-9.4,0-17.03-7.63-17.03-17.03V13.14C0,5.89,5.89,0,13.14,0Z"/><path class="cls-11" d="m70.38,4.32l-1.59,3.15H29.85l-2.32-3.15H9.13c-2.94,0-5.33,2.36-5.33,5.27v169.66c0,4.4,3.61,7.96,8.06,7.96h75.8c4.45,0,8.06-3.56,8.06-7.96V9.58c0-2.91-2.39-5.27-5.33-5.27h-20Z"/><circle class="cls-8" cx="48.11" cy="4.02" r="1.6"/><path class="cls-8" d="m52.07,4.02c0,.44-.36.8-.8.8s-.8-.36-.8-.8.36-.8.8-.8.8.36.8.8Z"/><path class="cls-13" d="m90.37,4.32h-20l-1.59,3.15H29.85l-2.32-3.15H9.13c-2.94,0-5.33,2.36-5.33,5.27v43.41h91.91V9.58c0-2.91-2.39-5.27-5.33-5.27Z"/><path class="cls-13" d="m96.21,53.49H3.3V9.58c0-3.18,2.62-5.77,5.83-5.77h18.66l2.32,3.15h38.38l1.59-3.15h20.3c3.22,0,5.83,2.59,5.83,5.77v43.91Zm-91.91-1h90.91V9.58c0-2.63-2.17-4.77-4.83-4.77h-19.69l-1.59,3.15H29.6l-2.32-3.15H9.13c-2.67,0-4.83,2.14-4.83,4.77v42.91Z"/><g id="freepik--Screen--inject-5"><g class="cls-4"><rect class="cls-8" x="18.57" y="8.24" width="1.22" height="1.62"/></g><g class="cls-4"><rect class="cls-8" x="16.58" y="7.7" width="1.22" height="2.16"/></g><g class="cls-4"><rect class="cls-8" x="14.6" y="7.16" width="1.22" height="2.7"/></g><g class="cls-4"><rect class="cls-8" x="12.63" y="6.63" width="1.22" height="3.24"/></g><g class="cls-4"><rect class="cls-8" x="83.08" y="7.65" width=".72" height="1.62"/></g><g class="cls-4"><rect class="cls-8" x="84.29" y="7.06" width="5.74" height="2.8"/></g><rect class="cls-11" x="3.9" y="45.72" width="91.77" height="135.89"/><g class="cls-2"><path d="m95.67,66.63v-6.8l-21.58,19.9-22.8-7.59,14.28-26.42h-5.75l-6.09,11.25-44.17-11.25H3.91v3.66l16.62,4.22-13.49,23.76,31.65,7.44-3.76,6.95-31.04-7.78v5.09l28.61,7.17-9.26,17.13-14.62-4.11-4.73,2.97v5.91l5.55-3.51,11.39,3.19-16.94,31.32v10.63l11.08-20.48,15.07,4.27v18.7l30.66,19.37h10.08l-35.64-22.47v-14.17l60.52,17.15v-5.13l-18.06-5.14,5.52-29.35,12.57,3.18v-5.08l-33.92-8.58,15.05-27.99,18.84-17.41Zm-80.96,7.45l10.93-19.18,25.7,6.55-10.2,18.85-26.43-6.22Zm63.44,47.18l-5.46,29.23-55.3-15.68,15.49-28.65,5.93,6.33,18.63,3.51,20.72,5.25Zm-21.52-10.4l-15.16-2.88-6.07-6.5,13.49-24.95,22.2,7.4-14.47,26.92Z"/></g><path class="cls-10" d="m79.74,38.14H26.49c-1.89,0-3.43-1.53-3.43-3.42h0c0-1.9,1.53-3.43,3.42-3.43h53.25c1.89,0,3.42,1.55,3.41,3.44,0,0,0,.01,0,.02h0c-.02,1.87-1.54,3.39-3.41,3.39Z"/><path class="cls-15" d="m74.58,149.48c-1.91,0-3.46,1.49-3.46,3.34s1.55,3.34,3.46,3.34,3.46-1.49,3.46-3.34h0c0-1.84-1.55-3.34-3.46-3.34Zm0,5.51c-1.24,0-2.25-.97-2.25-2.17s1.01-2.17,2.25-2.17,2.25.97,2.25,2.17h0c0,1.2-1.01,2.17-2.25,2.17Z"/><path class="cls-15" d="m75.95,152.82c0,.73-.61,1.32-1.37,1.32s-1.37-.59-1.37-1.32.61-1.32,1.37-1.32,1.37.59,1.37,1.32h0Z"/><g class="cls-5"><path class="cls-8" d="m62.74,57.43l-7.28,13.59,18.64,5.52,10.29-10.28c-7.39-2.52-14.62-5.47-21.64-8.83Z"/></g><g class="cls-5"><path class="cls-8" d="m95.67,45.72v9.28l-9.12,9.14c-6.13-2.11-12.19-4.39-18.08-7.03-1.5-.67-2.97-1.36-4.44-2.07l4.97-9.31h26.67Z"/></g><g class="cls-5"><polygon class="cls-8" points="49.79 79.54 67.09 85.17 58.44 102.65 40.87 97.2 49.79 79.54"/></g><g class="cls-5"><path class="cls-8" d="m67.11,109.63c.15-.47,8.5-17.16,8.5-17.16l12.38,3.72,2.19,18.87-23.07-5.43Z"/></g><g class="cls-5"><polygon class="cls-8" points="78.64 89.13 91.61 92.47 92.65 78.27 80.94 84.45 78.64 89.13"/></g><g class="cls-5"><path class="cls-8" d="m41.76,135.51c.26-.21,6.01-17.31,6.01-17.31l26.81,4.56-4.47,22.83-28.36-10.07Z"/></g><g class="cls-5"><path class="cls-8" d="m27.33,125.74l8.09,2.57-4.04,7.2s-8.52-1.88-8.52-2.44,4.47-7.33,4.47-7.33Z"/></g><g class="cls-5"><path class="cls-8" d="m27.77,147.4c-.2.46-5.11,34.22-5.11,34.22H3.9l.56-11.49,11.36-25.22,11.95,2.5Z"/></g><g class="cls-5"><path class="cls-8" d="m95.67,164.06v14.25l-20.51.78-17.83-12.82s3.07-8.52,3.99-11.23l34.35,9.02Z"/></g><g class="cls-5"><path class="cls-8" d="m58.57,154.29l-15.4-4.05-2.19,7.3,13.94,7.28s3.65-9.84,3.65-10.53Z"/></g><g class="cls-5"><polygon class="cls-8" points="95.67 134.81 95.67 150.38 81.5 147.4 84.39 132.66 95.67 134.81"/></g><g class="cls-5"><polygon class="cls-8" points="10.88 104.98 15.37 95.07 27.89 98.63 22.85 108.98 10.88 104.98"/></g><g class="cls-5"><polygon class="cls-8" points="22.28 70.5 28.45 59.71 45.19 64.4 39.57 75.92 22.28 70.5"/></g><g class="cls-5"><path class="cls-8" d="m55.73,45.72c-1.55,3.03-3.55,6.88-3.88,7.12-.32.25-21.02-4.82-30.17-7.12h34.04Z"/></g><g class="cls-5"><polygon class="cls-8" points="15.37 56.55 3.9 79.67 3.9 53.67 15.37 56.55"/></g><path class="cls-15" d="m75.96,148.8h-.13c-.39-.07-.66-.43-.59-.81l4.98-27.76c-3.53-1.04-21.79-6.33-39.45-9.21-.16-.02-.3-.1-.42-.21l-8.4-8.79c-.21-.22-.25-.53-.12-.79l9.75-18.11-30.84-6.73c-.39-.09-.64-.46-.55-.84.02-.06.04-.13.07-.18l10.37-18.28c.2-.34.65-.46,1.01-.27.35.19.48.63.28.97l-9.94,17.46,30.82,6.73c.39.08.64.46.55.84-.01.06-.04.12-.07.17l-9.95,18.47,7.89,8.23c19.58,3.21,39.8,9.34,40.01,9.4.35.11.56.44.5.79l-5.06,28.34c-.06.34-.36.59-.71.59Z"/></g><path class="cls-15" d="m24.59,47.99h0c-1.54-1.55-4.05-1.56-5.6-.02,0,0-.02.02-.02.02h0c-1.53,1.55-1.53,4.03,0,5.58l2.79,2.79,2.79-2.79c1.54-1.53,1.56-4.02.05-5.58Zm-1.56,4.04c-.69.69-1.82.69-2.51,0-.69-.69-.69-1.82,0-2.51.69-.69,1.82-.69,2.51,0,0,0,0,0,0,0,.69.69.69,1.82,0,2.51Z"/><g class="cls-5"><path class="cls-8" d="m27.77,181.61c-.59,0,4.66-11.25,4.62-11.47-.14-.9,19.37,11.47,19.37,11.47h-23.99Z"/></g><path class="cls-15" d="m295.75,17.38h-12.72c-.79,0-1.44.64-1.44,1.44v25.93c0,.59.38,1.12.95,1.3,4.41,1.44,7.56,5.64,7.39,10.57-.2,5.5-4.7,10.06-10.2,10.32-6.16.29-11.24-4.62-11.24-10.71,0-4.76,3.11-8.78,7.4-10.18.56-.18.94-.71.94-1.3v-25.93c0-.79-.64-1.44-1.44-1.44h-22.84c-.79,0-1.44.64-1.44,1.44v32.83c0,5.27,1.05,10.12,3.13,14.42,2.09,4.35,5.27,7.85,9.43,10.4,4.15,2.55,9.39,3.84,15.57,3.84s11.37-1.3,15.52-3.86c4.15-2.57,7.33-6.07,9.42-10.39,2.07-4.28,3.13-9.13,3.13-14.4V18.81c0-.79-.64-1.44-1.44-1.44h-10.11Z"/><polygon class="cls-14" points="437.99 251.15 19.08 260.97 19.08 189.32 442.02 189.32 437.99 251.15"/><g class="cls-6"><polygon points="437.99 251.15 19.08 260.97 19.08 189.32 442.02 189.32 437.99 251.15"/></g><g id="freepik--Car--inject-7"><path class="cls-11" d="m2.96,207.7v36.34c0,7.78,5.07,14.66,12.51,16.96l2.96.9c1.82.57,3.73.83,5.63.78l19.56-.46c-2.32-8.13-2.53-16.72-.59-24.96,6.26-26.65,32.94-43.17,59.59-36.91,26.65,6.26,43.17,32.94,36.91,59.59l199.08-4.73c-.32-2.33-.48-4.67-.47-7.02.12-27.37,22.41-49.47,49.78-49.35,27.37.12,49.47,22.41,49.35,49.78,0,.97-.08,1.92-.08,2.87.26-.1.53-.21.8-.34l6.81-3.04c6.72-3.03,11.03-9.72,11.03-17.09v-74.01c0-6.96-3.86-13.35-10.02-16.59l-51.17-26.91c-.59-.31-1.04-.83-1.26-1.45-.51-1.4.2-2.95,1.6-3.47l6.26-2.24c.53-.18.9-.64.97-1.19.1-.8-.46-1.53-1.26-1.64-24.31-3.39-118.87-15.76-168.58-9.68-57.34,7.02-112.29,56.78-112.29,56.78-42.19-1.58-81.58,13.11-98.54,20.48-5.47,2.39-9.69,6.98-11.6,12.64l-5.8,17.19c-.76,2.18-1.16,4.46-1.19,6.77Z"/><path class="cls-13" d="m338.66,255.21c-.29-2.18-.43-4.38-.43-6.59,0-1.12.04-2.23.1-3.34l-36-14.73c-2.11-.86-4.38-1.23-6.65-1.08l-125.21,8.22c-2.05.13-4.05.68-5.87,1.62l-23.79,12.23c-.17,2.83-.58,5.64-1.21,8.4l199.06-4.73Z"/><path class="cls-13" d="m455.84,231.02v-1.89l-20.36,6.23c1.19,4.32,1.79,8.77,1.79,13.25,0,.97-.08,1.92-.08,2.87.26-.1.53-.21.8-.34l6.82-3.04c6.72-3.03,11.03-9.72,11.03-17.09Z"/><path class="cls-13" d="m8.74,257.08c1.94,1.8,4.27,3.13,6.8,3.91l2.96.9c1.82.57,3.73.83,5.63.78l19.56-.46c-.71-2.47-1.22-5-1.53-7.55l-33.43,2.41Z"/><path class="cls-13" d="m387.84,194.4c-2.25,0-4.5.14-6.73.42-29.71,3.71-50.78,30.8-47.07,60.51l4.7-.12c-.32-2.33-.48-4.67-.47-7.02.12-27.37,22.41-49.47,49.78-49.35,27.37.12,49.47,22.41,49.35,49.78,0,.97-.08,1.92-.08,2.87.26-.1.53-.21.8-.34l3.91-1.77v-.76c-.04-29.93-24.3-54.19-54.23-54.22h.05Z"/><path class="cls-13" d="m91.36,194.4c-4.63,0-9.24.59-13.72,1.76-28.97,7.57-46.32,37.19-38.75,66.17l4.81-.1c-2.32-8.13-2.53-16.72-.59-24.96,6.26-26.65,32.94-43.17,59.59-36.91,26.65,6.26,43.17,32.94,36.91,59.59l4.8-.12c.78-3.69,1.17-7.46,1.17-11.23,0-29.94-24.28-54.2-54.22-54.19h0Z"/><path class="cls-7" d="m138.54,152.71c-.58.49-.99,1.2-1.16,1.99-.41,1.89.6,3.8,2.26,4.26l20.69,5.8c1.83.52,3.73.66,5.62.42l153.44-19.01c3.73-.47,7.21-2.41,9.85-5.47l20.13-23.45c.67-.77,1.1-1.78,1.21-2.86.27-2.67-1.4-5.08-3.74-5.38-36.74-4.87-83.2-9.3-112.53-5.72-38.45,4.69-77.15,33.59-95.75,49.41Z"/><path class="cls-10" d="m139.23,152.71c-.58.49-.99,1.2-1.16,1.99-.41,1.89.6,3.8,2.26,4.26l20.69,5.8c1.83.52,3.73.66,5.62.42l150-10.28c3.73-.47,9.51-7.34,13.59-12.91l19.83-24.74c.67-.77,1.1-1.78,1.21-2.86.27-2.67-1.4-5.08-3.74-5.38-36.74-4.87-83.2-9.3-112.53-5.72-38.45,4.69-77.15,33.59-95.75,49.41Z"/><g class="cls-1"><path d="m239.46,167.33c-.98-.35-1.49-1.44-1.14-2.42h0c.43-1.22,1.57-2.05,2.86-2.1l18.26-.77c.25-.01.49.03.73.11.99.35,1.51,1.44,1.15,2.43h0c-.44,1.22-1.58,2.05-2.87,2.1l-18.26.76c-.25.01-.49-.03-.73-.11Z"/></g><g class="cls-3"><path d="m375.26,115.01c-1.61,1.44-1.76,3.91-.32,5.52l4.33,4.71c.5.53,1.13.91,1.83,1.11l53.05,14.71c.92.25,1.87.38,2.83.38h10.54c-.55-.37-1.11-.7-1.7-1.02l-51.17-26.93s0,0,0,0c-1.29-.64-1.82-2.2-1.18-3.49l-16.62,4.16c-.59.16-1.13.45-1.58.85Z"/></g><path class="cls-10" d="m44.94,178.03l-18.1-1.97-10.4,4.25c-2.19.89-3.82,2.77-4.4,5.06h0c-.34,1.32-.15,2.73.53,3.91l.18.31c1.16,2,3.42,3.1,5.71,2.79l10.43-1.43c1.02-.15,1.98-.54,2.8-1.16l12.04-9.13,1.19-2.63Z"/><g class="cls-2"><path class="cls-8" d="m292.14,169.76l-152.54,10.91,2.87,18.81c.88,5.76,3.02,11.26,6.26,16.11l12.75,19.05,130.19-17.6,61.55-47.28h-61.08Z"/></g><circle class="cls-13" cx="387.79" cy="248.61" r="41.29"/><circle class="cls-10" cx="387.79" cy="248.61" r="25.32"/><g class="cls-1"><rect class="cls-10" x="385.76" y="225.85" width="4.06" height="17.02" rx="2.02" ry="2.02"/></g><g class="cls-1"><rect class="cls-10" x="385.76" y="254.37" width="4.06" height="17.02" rx="2.02" ry="2.02"/></g><g class="cls-1"><path class="cls-10" d="m395.52,246.49c-.97.55-2.2.21-2.76-.76h0s0,0,0,0c-.56-.97-.22-2.2.75-2.76l11.23-6.52c.97-.56,2.22-.23,2.78.74h0c.55.97.22,2.2-.74,2.77l-11.23,6.52s-.01,0-.02.01Z"/></g><g class="cls-1"><path class="cls-10" d="m370.82,260.7c-.97.56-2.2.22-2.76-.75h0s0,0,0,0c-.56-.97-.22-2.2.75-2.76l11.23-6.52s0,0,0,0c.97-.56,2.2-.23,2.76.73h0c.56.97.24,2.21-.73,2.78l-11.24,6.52s0,0,0,0Z"/></g><g class="cls-1"><path class="cls-10" d="m404.74,260.75l-11.23-6.52c-.97-.56-1.3-1.81-.74-2.78h0c.57-.97,1.81-1.29,2.78-.73l11.23,6.52c.96.56,1.3,1.8.74,2.77h0c-.56.97-1.81,1.3-2.78.74Z"/></g><g class="cls-1"><path class="cls-10" d="m382.8,245.74c-.56.97-1.8,1.3-2.76.74l-11.23-6.52s0,0,0,0c-.97-.56-1.3-1.8-.74-2.76h0s0,0,0,0c.56-.97,1.8-1.3,2.76-.74l11.24,6.52s0,0,0,0c.96.56,1.29,1.8.73,2.76h0s0,0,0,0Z"/></g><path class="cls-14" d="m384.39,248.61c0-1.87,1.52-3.39,3.39-3.39h.01c1.88,0,3.4,1.52,3.4,3.4s-1.52,3.4-3.4,3.4-3.4-1.52-3.4-3.4h0Z"/><circle class="cls-13" cx="91.35" cy="248.62" r="41.29"/><circle class="cls-10" cx="91.35" cy="248.62" r="25.32"/><g class="cls-1"><rect class="cls-10" x="89.32" y="225.85" width="4.06" height="17.02" rx="2.02" ry="2.02"/></g><g class="cls-1"><rect class="cls-10" x="89.32" y="254.37" width="4.06" height="17.02" rx="2.02" ry="2.02"/></g><g class="cls-1"><path class="cls-10" d="m99.08,246.5c-.97.55-2.19.21-2.74-.76h0s0,0,0,0c-.56-.97-.23-2.2.73-2.76l11.24-6.52s0,0,0,0c.97-.56,2.2-.22,2.76.75h0s0,0,0,0c.56.97.22,2.2-.75,2.76l-11.23,6.52s-.02.01-.03.02Z"/></g><g class="cls-1"><path class="cls-10" d="m71.62,259.95h0s0,0,0,0c-.56-.97-.22-2.2.75-2.76l11.23-6.52c.97-.56,2.21-.24,2.78.73h0c.56.97.23,2.22-.74,2.78l-11.23,6.52c-.97.56-2.22.23-2.78-.74Z"/></g><g class="cls-1"><path class="cls-10" d="m111.07,260.01c-.56.97-1.8,1.3-2.76.74l-11.24-6.52c-.97-.57-1.29-1.81-.73-2.78h0s0,0,0,0c.56-.96,1.8-1.29,2.76-.73l11.23,6.52s0,0,0,0c.97.56,1.3,1.8.74,2.76h0s0,0,0,0Z"/></g><g class="cls-1"><path class="cls-10" d="m86.36,245.76c-.56.96-1.8,1.29-2.77.72l-11.23-6.52s0,0,0,0c-.97-.56-1.3-1.8-.74-2.76h0c.56-.97,1.81-1.3,2.78-.74l11.23,6.52s0,0,0,0c.97.56,1.3,1.8.74,2.76h0s0,.01-.01.02Z"/></g><path class="cls-14" d="m91.36,245.21h0c1.88,0,3.4,1.52,3.4,3.4s-1.52,3.4-3.4,3.4-3.4-1.52-3.4-3.4,1.52-3.4,3.4-3.4Z"/><path class="cls-10" d="m451.51,170.71c1.38-.43,2.14-1.89,1.72-3.27-.48-8.69-2.33-16.43-7.66-21.76-.36-1.17-1.48-1.94-2.7-1.84l-31.47,2.97c-.55.06-1.06.29-1.47.66-1.07.97-1.15,2.62-.19,3.68l9.01,9.72c.31.34.71.58,1.15.72l30.13,9.13c.48.14,1,.13,1.48-.02Z"/><path class="cls-13" d="m137.37,154.69c-.41,1.89.6,3.8,2.26,4.26l20.69,5.8c1.83.52,3.37.87,5.75.98l6.52-.43-6.14-33.2c-14.19,9.32-15.16,9.75-27.91,20.59-.58.49-.99,1.2-1.16,1.99Z"/><path class="cls-13" d="m272.18,102.23l-13,56.69,17.01-1.22,7.77-54.93c-3.98-.23-7.9-.4-11.77-.53Z"/><path class="cls-13" d="m326.14,147.09l23.88-29.84c.69-.78,1.12-1.8,1.23-2.9.27-2.67-1.41-5.07-3.75-5.37-4.89-.66-10.1-1.3-15.31-1.93"/><path class="cls-11" d="m156.19,160.45c-4.13.05-7.53-3.26-7.57-7.4h0c-.04-3.52,2.37-6.59,5.79-7.39l9.98-2.34,2.54,16.72-10.53.4c-.07,0-.13,0-.2,0Z"/><g class="cls-3"><polygon points="164.01 160.16 166.93 160.04 164.39 143.33 161.54 144 164.01 160.16"/></g></g><path class="cls-13" d="m262.85,232.13s-.07,0-.11-.01c-.27-.06-.44-.32-.38-.59.11-.52,11.01-51.69,12.41-58.66.53-2.65.72-7.75.57-15.16,0-.28.21-.5.49-.51h.01c.27,0,.49.22.5.49.16,7.48-.04,12.65-.59,15.37-1.4,6.98-12.3,58.15-12.41,58.67-.05.24-.26.4-.49.4Z"/><path class="cls-13" d="m164.6,239.81c-.16,0-.32-.08-.41-.22-.14-.21-14.22-21.04-19.05-29.76-5-9.02-8.22-52.03-8.35-53.85-.02-.28.19-.52.46-.54.27-.02.52.19.54.46.03.44,3.34,44.62,8.23,53.44,4.82,8.68,18.87,29.48,19.01,29.69.16.23.09.54-.13.69-.09.06-.18.09-.28.09Z"/><path class="cls-13" d="m26.84,176.56c-.2,0-.38-.12-.46-.31-.1-.26.02-.55.27-.65,10.8-4.42,45.43-12.75,53.55-14.05,10.21-1.64,45.12-10.25,45.48-10.34.27-.07.54.1.61.37.07.27-.1.54-.37.61-.35.09-35.31,8.71-45.56,10.35-7.87,1.26-42.83,9.69-53.33,13.99-.06.03-.13.04-.19.04Z"/><path class="cls-13" d="m176.03,148.91c-.48.29-6.11,6.11-6.11,6.11l1.1,7.22,7.08-7.31-2.07-6.01Z"/><path class="cls-13" d="m184.51,163.96h0c-1.24.61-2.75.1-3.37-1.14l-11.24-22.77c-.61-1.24-.1-2.75,1.14-3.37h0c1.24-.61,2.75-.1,3.37,1.14l11.24,22.77c.61,1.24.1,2.75-1.14,3.37Z"/><path class="cls-9" d="m196.77,136.56s5.57,22.24,8.84,23.08c5.92,1.52,26.29-.18,25.89-.84l-.87-10.23s-20.53,3.4-20.37,3.04l-7.74-17.28-5.76,2.24Z"/><path class="cls-9" d="m201.9,135.67s1.83-1.7,1.88-3.77c.05-2.07.64-3.71.57-5.25-.07-1.54-1.36.09-1.87,1.1s-1.1,2.14-1.79,1.64c-.7-.5-3.72-7.25-4.76-7.84-1.04-.59-.9.65-.9.65,0,0-.78-1.62-1.5-1.48-.19.03-.57.42-.33,1.21.54,1.78,1.86,5.47,1.86,5.47-.07-.21-2.03-4.64-2.41-5.27-.5-.82-1.15-.95-1.61-.65-.66.43,1.58,6.01,1.51,6.31,0,0-1.18-3.25-2.19-3.41-1.01-.15-.37,1.93.53,3.67.83,1.59,2.05,4.93,3.05,6.47,1.24,1.89,2.49,2.89,4.58,2.56,2.09-.32,3.37-1.43,3.37-1.43Z"/><path class="cls-12" d="m196.77,126.66c-.1,0-.2-.06-.24-.17-.47-1.35-1-2.69-1.58-3.99-.06-.13,0-.27.12-.33s.27,0,.33.12c.59,1.31,1.13,2.67,1.6,4.03.04.13-.02.27-.15.32-.03,0-.05.01-.08.01Z"/><path class="cls-12" d="m192.96,129.33c-.07,0-.14-.03-.19-.09-.09-.11-.07-.26.03-.35,1.47-1.21,3.32-1.98,5.21-2.17.15-.02.26.09.27.22.01.14-.09.26-.22.27-1.79.18-3.55.92-4.94,2.06-.05.04-.1.06-.16.06Z"/><path class="cls-12" d="m198.97,134.44c-.1,0-.19-.06-.23-.16-.31-.76-.34-1.61-.1-2.4.25-.78.76-1.46,1.46-1.91.12-.07.27-.04.35.07.08.12.04.27-.07.35-.58.38-1.04.97-1.25,1.64-.21.66-.18,1.41.08,2.06.05.13,0,.27-.14.33-.03.01-.06.02-.09.02Z"/><path class="cls-15" d="m254.92,147.04c-3.73-4.92-9.65-4.43-13.49-3.76l-7.62,1.26c-.24.04-.48.1-.71.17l-1.74.54-16.3,5.22,3.93,10.44,5.32-.65-.89,1.44,5.23-.33h0l28.52-1.49h0s0-5.79,0-5.79c0-2.53-.73-5.03-2.26-7.05Z"/><path class="cls-9" d="m253.38,155.25s-3.58,23.99-6.11,26.53c-6.04,6.07-28.4-10.63-28.4-10.63l.69-6.45,19.31,8,3.61-20.37,10.89,2.92Z"/><path class="cls-15" d="m256.31,153.61c-.17.59-1.72,17.32-1.72,17.32l-16.38-1.53s.85-4.65,2.09-12.77c1.29-8.46,2.05-12.74,6.24-13.43,7.95-1.31,9.76,10.4,9.76,10.4Z"/><path class="cls-13" d="m250.82,115.72c2.47,4.33,3.33,6.92,3.55,11.07.26,4.85.04,9.14-1.04,10.38-1.42,1.63-16.78,3.16-25.39,2.81-.31-.01-.57-2.74-.57-2.74,0,0-1.22,2.67-1.63,2.65-2.35-.11-3.85-.19-3.85-.19,0,0,1.95-4.01,4.33-18.46,1.17-7.06,8.27-9.88,12.45-10.41,6.97-.88,12.14,4.89,12.14,4.89Z"/><path class="cls-13" d="m230.36,129.36c-2.25-3.9-4.49-14.4,4.9-17.63,11.72-4.04,16.97,3.43,17.97,10.84,1.01,7.41-3.17,13-10.91,12.44-7.74-.56-10.4-2.95-11.96-5.64Z"/><path class="cls-9" d="m246.62,129.89l-6.92,6.37-1.33,1.42c.37,1,.68,2.03.78,3.02.21,1.74-.87,3.06-.87,3.06l-1.55,3.53c3.47-2.72,11.36-4.17,11.36-4.17-1.3-4.53-1.84-8.78-1.47-13.23Z"/><path class="cls-12" d="m239.19,141.08c1.87-1,3.95-2.78,3.81-4.93-.06-.91-.22-1.77-.41-2.33l-3.92,4.72c.27.8.35,1.33.52,2.53Z"/><path class="cls-9" d="m248.83,122.81c-.94,6.77-1.19,9.64-4.86,13.04-5.52,5.11-13.55,2.94-14.64-3.86-.98-6.12.72-16.16,7.52-18.7,6.7-2.51,12.91,2.76,11.98,9.53Z"/><path class="cls-13" d="m243.43,116.51c-2.27,2.17-1.59,10.8,4.43,12.2,7.07-1.32,2.34-18.67-4.43-12.2Z"/><path class="cls-13" d="m236.97,111.83c-2.73.79-5.79,5.3-6.35,7.06,3.79.8,14.24-2.3,14.24-2.3,0,0,6.78,2.21,3.46-1.43-3.32-3.64-11.35-3.34-11.35-3.34Z"/><path class="cls-9" d="m250.63,128.45c-.87,1.36-2.21,2.17-3.42,2.42-1.82.37-2.61-2.57-1.92-4.34.63-1.6,2.45-2.59,4.18-2.15,1.71.43,2.15,2.53,1.16,4.08Z"/><path class="cls-13" d="m219.24,139.29l-.52-.86c2.46-1.48,4.86-7.37,5.89-9.88,1.12-2.75,1.65-5.76,2.16-8.67l.98.17c-.52,2.96-1.05,6.02-2.22,8.87-1.15,2.82-3.55,8.7-6.3,10.36Z"/><path class="cls-15" d="m246.67,130.66c-.03.7.51,1.29,1.21,1.33.7.03,1.29-.51,1.33-1.21.03-.7-.51-1.29-1.21-1.33-.7-.03-1.29.51-1.33,1.21Z"/><path class="cls-12" d="m246.58,128.48s-.01,0-.02,0c-.14-.01-.24-.13-.23-.27.06-.7.44-1.35,1.03-1.74.59-.39,1.34-.49,2.01-.27.13.04.2.19.16.32-.04.13-.18.2-.32.16-.52-.17-1.12-.09-1.57.21-.45.3-.76.82-.81,1.37-.01.13-.12.23-.25.23Z"/><path class="cls-9" d="m227.15,169.16l-7.6-4.46-2.07-2.65s-2.13-2.52-3.85-2.68c-1.23-.12-2.5.52-2.5.52,0,0-1.99,1.26-.77,3.15,0,0-1.97,1.02-.63,3.22,0,0-1.89.03-.28,2.01s3.52,2.37,5.04,2.6c1.52.23,3.34-.3,3.34-.3l8.39,5.51.94-6.92Z"/><polyline class="cls-16" points="239.65 160.81 241.03 152.22 236.84 160.91 239.65 160.81"/><polygon class="cls-16" points="224.31 160.25 227.73 153.31 221.16 160.64 224.31 160.25"/></g></svg>