<?xml version="1.0" encoding="UTF-8"?><svg xmlns="http://www.w3.org/2000/svg" viewBox="0 0 310.15 226.33"><defs><style>.cls-1{fill:none;isolation:isolate;}.cls-2{fill:#e4e7e0;}.cls-3{fill:#9fbab5;}.cls-4{fill:#8aa09c;}.cls-5{fill:#8cce7c;}.cls-6{fill:#141710;}.cls-7{fill:#94e084;}.cls-8{fill:#c7ccc0;mix-blend-mode:multiply;}</style></defs><g class="cls-1"><g id="Layer_2"><g id="Layer_1-2"><polygon class="cls-5" points="60.42 77.36 126.1 77.36 130.57 92.13 251.66 92.13 245.57 226.33 61.38 226.33 60.42 77.36"/><rect class="cls-3" x="190.65" y="26.8" width="110.03" height="154.66" transform="translate(15.4 -30.68) rotate(7.38)"/><rect class="cls-2" x="214.83" y="46.95" width="75.08" height="10.73" rx="5.36" ry="5.36" transform="translate(8.8 -31.97) rotate(7.38)"/><rect class="cls-2" x="212.17" y="66.84" width="75.08" height="10.73" rx="5.36" ry="5.36" transform="translate(11.34 -31.46) rotate(7.38)"/><rect class="cls-2" x="204.53" y="126.56" width="75.08" height="10.73" rx="5.36" ry="5.36" transform="translate(18.94 -29.98) rotate(7.38)"/><rect class="cls-2" x="201.87" y="146.45" width="75.08" height="10.73" rx="5.36" ry="5.36" transform="translate(21.47 -29.48) rotate(7.38)"/><rect class="cls-2" x="207.02" y="106.65" width="75.08" height="10.73" rx="5.36" ry="5.36" transform="translate(16.4 -30.47) rotate(7.38)"/><rect class="cls-2" x="209.75" y="84.35" width="37.71" height="10.73" rx="5.36" ry="5.36" transform="translate(13.41 -28.61) rotate(7.38)"/><rect class="cls-2" x="250.98" y="88.9" width="25.6" height="10.73" rx="5.36" ry="5.36" transform="translate(14.28 -33.08) rotate(7.38)"/><rect class="cls-3" x="15.6" y="10.17" width="110.03" height="154.66" transform="translate(-17.45 17.58) rotate(-12.65)"/><rect class="cls-2" x="21.63" y="31.16" width="75.08" height="10.73" rx="5.36" ry="5.36" transform="translate(-6.56 13.84) rotate(-12.65)"/><rect class="cls-2" x="25.94" y="50.76" width="75.08" height="10.73" rx="5.36" ry="5.36" transform="translate(-10.75 15.26) rotate(-12.65)"/><rect class="cls-2" x="30.33" y="70.34" width="75.08" height="10.73" rx="5.36" ry="5.36" transform="translate(-14.93 16.7) rotate(-12.65)"/><rect class="cls-2" x="39.21" y="109.48" width="75.08" height="10.73" rx="5.36" ry="5.36" transform="translate(-23.28 19.59) rotate(-12.65)"/><rect class="cls-2" x="43.52" y="129.08" width="75.08" height="10.73" rx="5.36" ry="5.36" transform="translate(-27.47 21.01) rotate(-12.65)"/><rect class="cls-2" x="34.73" y="89.92" width="75.08" height="10.73" rx="5.36" ry="5.36" transform="translate(-19.11 18.14) rotate(-12.65)"/><rect class="cls-8" x="52.64" y="31.15" width="75.3" height="129.57" transform="translate(-18.81 22.1) rotate(-12.65)"/><polyline class="cls-3" points="158.19 42.31 187.2 171.62 79.84 195.71 45.98 44.8 130.26 25.89"/><rect class="cls-2" x="67.61" y="51.87" width="75.08" height="10.73" rx="5.36" ry="5.36" transform="translate(-9.98 24.41) rotate(-12.65)"/><rect class="cls-2" x="72.16" y="73.66" width="55.01" height="10.73" rx="5.36" ry="5.36" transform="translate(-14.88 23.74) rotate(-12.65)"/><polygon class="cls-4" points="158.19 42.31 130.26 25.89 135.1 47.49 158.19 42.31"/><polygon class="cls-7" points="114.51 101.91 230.92 101.91 245.57 226.33 61.38 226.33 44.36 90.1 109.82 90.1 114.51 101.91"/><path class="cls-6" d="m213.12,114.71h-7.19c-.45,0-.81.36-.81.81v14.66c0,.34.22.63.54.74,2.49.81,4.27,3.19,4.18,5.97-.11,3.11-2.66,5.69-5.77,5.84-3.48.16-6.35-2.61-6.35-6.06,0-2.69,1.76-4.96,4.18-5.75.32-.1.53-.4.53-.74v-14.66c0-.45-.36-.81-.81-.81h-12.91c-.45,0-.81.36-.81.81v18.56c0,2.98.59,5.72,1.77,8.15,1.18,2.46,2.98,4.44,5.33,5.88,2.35,1.44,5.31,2.17,8.8,2.17s6.43-.74,8.78-2.18c2.35-1.45,4.14-3.43,5.33-5.88,1.17-2.42,1.77-5.16,1.77-8.14v-18.56c0-.45-.36-.81-.81-.81h-5.72Z"/></g></g></g></svg>